# xmcd CD database file
#
# Track frame offsets:
#	182
#	20190
#	36717
#	62572
#	65335
#	109677
#	129217
#	151060
#	170915
#	209772
#
# Disc length: 3236 seconds
#
# Revision: 7
# Processed by: cddbd v1.5.2PL0 Copyright (c) Steve Scherf et al.
# Submitted via: CDex 1.51
#
DISCID=920ca20a
DTITLE=Walter Trout Band - Life In The Jungle
DYEAR=1990
DGENRE=Blues/Rock
TTITLE0=Good Enough To Eat
TTITLE1=The mountain Song
TTITLE2=Life In The Jungle
TTITLE3=Spacefish
TTITLE4=Red House
TTITLE5=She's Out There Somewhere
TTITLE6=Frederica (I Don't Need You)
TTITLE7=In My Mind
TTITLE8=Cold Cold Feeling
TTITLE9=Serve Me Right To Suffer
EXTD=YEAR: 1990
EXTT0=
EXTT1=
EXTT2=
EXTT3=
EXTT4=
EXTT5=
EXTT6=
EXTT7=
EXTT8=
EXTT9=
PLAYORDER=
